<svg width="66" height="24" viewBox="0 0 66 24" fill="none" xmlns="http://www.w3.org/2000/svg">
<symbol id="live" viewBox="0 0 66 24">
<path d="M1.43738 6.8H4.02938V15.888H9.64538V18H1.43738V6.8ZM10.9176 9.392H13.4136V18H10.9176V9.392ZM12.1656 8.192C11.707 8.192 11.3336 8.05867 11.0456 7.792C10.7576 7.52533 10.6136 7.19467 10.6136 6.8C10.6136 6.40533 10.7576 6.07467 11.0456 5.808C11.3336 5.54133 11.707 5.408 12.1656 5.408C12.6243 5.408 12.9976 5.536 13.2856 5.792C13.5736 6.048 13.7176 6.368 13.7176 6.752C13.7176 7.168 13.5736 7.51467 13.2856 7.792C12.9976 8.05867 12.6243 8.192 12.1656 8.192ZM24.2741 9.392L20.6421 18H18.0661L14.4501 9.392H17.0261L19.4101 15.248L21.8741 9.392H24.2741ZM33.4903 13.728C33.4903 13.76 33.4743 13.984 33.4423 14.4H26.9303C27.0476 14.9333 27.3249 15.3547 27.7623 15.664C28.1996 15.9733 28.7436 16.128 29.3943 16.128C29.8423 16.128 30.2369 16.064 30.5783 15.936C30.9303 15.7973 31.2556 15.584 31.5543 15.296L32.8823 16.736C32.0716 17.664 30.8876 18.128 29.3303 18.128C28.3596 18.128 27.5009 17.9413 26.7543 17.568C26.0076 17.184 25.4316 16.656 25.0263 15.984C24.6209 15.312 24.4183 14.5493 24.4183 13.696C24.4183 12.8533 24.6156 12.096 25.0103 11.424C25.4156 10.7413 25.9649 10.2133 26.6583 9.84C27.3623 9.456 28.1463 9.264 29.0103 9.264C29.8529 9.264 30.6156 9.44533 31.2983 9.808C31.9809 10.1707 32.5143 10.6933 32.8983 11.376C33.2929 12.048 33.4903 12.832 33.4903 13.728ZM29.0263 11.152C28.4609 11.152 27.9863 11.312 27.6023 11.632C27.2183 11.952 26.9836 12.3893 26.8983 12.944H31.1383C31.0529 12.4 30.8183 11.968 30.4343 11.648C30.0503 11.3173 29.5809 11.152 29.0263 11.152Z" fill="#FC5252"/>
<path d="M58 4C58.2652 4 58.5196 4.10536 58.7071 4.29289C58.8946 4.48043 59 4.73478 59 5V9.2L64.213 5.55C64.288 5.49746 64.3759 5.4665 64.4672 5.4605C64.5586 5.4545 64.6498 5.4737 64.731 5.51599C64.8122 5.55829 64.8802 5.62206 64.9276 5.70035C64.9751 5.77865 65.0001 5.86846 65 5.96V18.04C65.0001 18.1315 64.9751 18.2214 64.9276 18.2996C64.8802 18.3779 64.8122 18.4417 64.731 18.484C64.6498 18.5263 64.5586 18.5455 64.4672 18.5395C64.3759 18.5335 64.288 18.5025 64.213 18.45L59 14.8V19C59 19.2652 58.8946 19.5196 58.7071 19.7071C58.5196 19.8946 58.2652 20 58 20H44C43.7348 20 43.4804 19.8946 43.2929 19.7071C43.1054 19.5196 43 19.2652 43 19V5C43 4.73478 43.1054 4.48043 43.2929 4.29289C43.4804 4.10536 43.7348 4 44 4H58ZM57 6H45V18H57V6ZM49.4 8.829C49.4761 8.82879 49.5507 8.8503 49.615 8.891L53.97 11.663C54.0266 11.6992 54.0731 11.749 54.1054 11.8079C54.1376 11.8668 54.1545 11.9329 54.1545 12C54.1545 12.0671 54.1376 12.1332 54.1054 12.1921C54.0731 12.251 54.0266 12.3008 53.97 12.337L49.615 15.11C49.5543 15.1487 49.4844 15.1703 49.4125 15.1725C49.3406 15.1748 49.2694 15.1576 49.2065 15.1228C49.1435 15.088 49.0911 15.0368 49.0548 14.9747C49.0184 14.9127 48.9995 14.8419 49 14.77V9.23C49 9.009 49.18 8.83 49.4 8.83V8.829ZM63 8.84L59 11.64V12.358L63 15.158V8.84Z" fill="#FC5252"/>
</symbol>
</svg>
