<svg width="100" height="24" viewBox="0 0 100 24" fill="none" xmlns="http://www.w3.org/2000/svg">
<symbol id="preview" viewBox="0 0 100 24">
<g clip-path="url(#clip0_893_281)">
<path d="M6.62913 6.79988C7.62113 6.79988 8.47979 6.96521 9.20513 7.29588C9.94113 7.62654 10.5065 8.09588 10.9011 8.70388C11.2958 9.31188 11.4931 10.0319 11.4931 10.8639C11.4931 11.6852 11.2958 12.4052 10.9011 13.0239C10.5065 13.6319 9.94113 14.1012 9.20513 14.4319C8.47979 14.7519 7.62113 14.9119 6.62913 14.9119H4.37313V17.9999H1.78113V6.79988H6.62913ZM6.48513 12.7999C7.26379 12.7999 7.85579 12.6345 8.26113 12.3039C8.66646 11.9625 8.86913 11.4825 8.86913 10.8639C8.86913 10.2345 8.66646 9.75454 8.26113 9.42388C7.85579 9.08254 7.26379 8.91188 6.48513 8.91188H4.37313V12.7999H6.48513ZM15.5516 10.5279C15.8503 10.1119 16.2503 9.79721 16.7516 9.58388C17.2636 9.37054 17.8503 9.26388 18.5116 9.26388V11.5679C18.2343 11.5465 18.0476 11.5359 17.9516 11.5359C17.237 11.5359 16.677 11.7385 16.2716 12.1439C15.8663 12.5385 15.6636 13.1359 15.6636 13.9359V17.9999H13.1676V9.39188H15.5516V10.5279ZM28.3496 13.7279C28.3496 13.7599 28.3336 13.9839 28.3016 14.3999H21.7896C21.907 14.9332 22.1843 15.3545 22.6216 15.6639C23.059 15.9732 23.603 16.1279 24.2536 16.1279C24.7016 16.1279 25.0963 16.0639 25.4376 15.9359C25.7896 15.7972 26.115 15.5839 26.4136 15.2959L27.7416 16.7359C26.931 17.6639 25.747 18.1279 24.1896 18.1279C23.219 18.1279 22.3603 17.9412 21.6136 17.5679C20.867 17.1839 20.291 16.6559 19.8856 15.9839C19.4803 15.3119 19.2776 14.5492 19.2776 13.6959C19.2776 12.8532 19.475 12.0959 19.8696 11.4239C20.275 10.7412 20.8243 10.2132 21.5176 9.83988C22.2216 9.45588 23.0056 9.26388 23.8696 9.26388C24.7123 9.26388 25.475 9.44521 26.1576 9.80788C26.8403 10.1705 27.3736 10.6932 27.7576 11.3759C28.1523 12.0479 28.3496 12.8319 28.3496 13.7279ZM23.8856 11.1519C23.3203 11.1519 22.8456 11.3119 22.4616 11.6319C22.0776 11.9519 21.843 12.3892 21.7576 12.9439H25.9976C25.9123 12.3999 25.6776 11.9679 25.2936 11.6479C24.9096 11.3172 24.4403 11.1519 23.8856 11.1519ZM38.3991 9.39188L34.7671 17.9999H32.1911L28.5751 9.39188H31.1511L33.5351 15.2479L35.9991 9.39188H38.3991ZM39.4176 9.39188H41.9136V17.9999H39.4176V9.39188ZM40.6656 8.19188C40.207 8.19188 39.8336 8.05854 39.5456 7.79188C39.2576 7.52521 39.1136 7.19454 39.1136 6.79988C39.1136 6.40521 39.2576 6.07454 39.5456 5.80788C39.8336 5.54121 40.207 5.40788 40.6656 5.40788C41.1243 5.40788 41.4976 5.53588 41.7856 5.79188C42.0736 6.04788 42.2176 6.36788 42.2176 6.75188C42.2176 7.16788 42.0736 7.51454 41.7856 7.79188C41.4976 8.05854 41.1243 8.19188 40.6656 8.19188ZM52.6621 13.7279C52.6621 13.7599 52.6461 13.9839 52.6141 14.3999H46.1021C46.2195 14.9332 46.4968 15.3545 46.9341 15.6639C47.3715 15.9732 47.9155 16.1279 48.5661 16.1279C49.0141 16.1279 49.4088 16.0639 49.7501 15.9359C50.1021 15.7972 50.4275 15.5839 50.7261 15.2959L52.0541 16.7359C51.2435 17.6639 50.0595 18.1279 48.5021 18.1279C47.5315 18.1279 46.6728 17.9412 45.9261 17.5679C45.1795 17.1839 44.6035 16.6559 44.1981 15.9839C43.7928 15.3119 43.5901 14.5492 43.5901 13.6959C43.5901 12.8532 43.7875 12.0959 44.1821 11.4239C44.5875 10.7412 45.1368 10.2132 45.8301 9.83988C46.5341 9.45588 47.3181 9.26388 48.1821 9.26388C49.0248 9.26388 49.7875 9.44521 50.4701 9.80788C51.1528 10.1705 51.6861 10.6932 52.0701 11.3759C52.4648 12.0479 52.6621 12.8319 52.6621 13.7279ZM48.1981 11.1519C47.6328 11.1519 47.1581 11.3119 46.7741 11.6319C46.3901 11.9519 46.1555 12.3892 46.0701 12.9439H50.3101C50.2248 12.3999 49.9901 11.9679 49.6061 11.6479C49.2221 11.3172 48.7528 11.1519 48.1981 11.1519ZM67.9916 9.39188L64.8716 17.9999H62.4716L60.5356 12.6559L58.5356 17.9999H56.1356L53.0316 9.39188H55.3836L57.4156 15.2159L59.5276 9.39188H61.6396L63.6876 15.2159L65.7836 9.39188H67.9916Z" fill="#222222"/>
<path d="M88 21.9999C82.477 21.9999 78 17.5229 78 11.9999C78 6.47688 82.477 1.99988 88 1.99988C93.523 1.99988 98 6.47688 98 11.9999C98 17.5229 93.523 21.9999 88 21.9999ZM88 19.9999C90.1217 19.9999 92.1566 19.157 93.6569 17.6567C95.1571 16.1564 96 14.1216 96 11.9999C96 9.87815 95.1571 7.84331 93.6569 6.34302C92.1566 4.84273 90.1217 3.99988 88 3.99988C85.8783 3.99988 83.8434 4.84273 82.3431 6.34302C80.8429 7.84331 80 9.87815 80 11.9999C80 14.1216 80.8429 16.1564 82.3431 17.6567C83.8434 19.157 85.8783 19.9999 88 19.9999ZM86.622 8.41488L91.501 11.6669C91.5559 11.7034 91.6009 11.7529 91.632 11.811C91.6631 11.8691 91.6794 11.934 91.6794 11.9999C91.6794 12.0658 91.6631 12.1307 91.632 12.1888C91.6009 12.2469 91.5559 12.2964 91.501 12.3329L86.621 15.5849C86.5608 15.6248 86.491 15.6476 86.4189 15.651C86.3468 15.6544 86.2751 15.6383 86.2114 15.6042C86.1477 15.5702 86.0945 15.5196 86.0573 15.4577C86.02 15.3958 86.0003 15.3251 86 15.2529V8.74688C86.0001 8.67453 86.0199 8.60357 86.0572 8.54156C86.0944 8.47955 86.1478 8.42881 86.2116 8.39474C86.2755 8.36067 86.3473 8.34455 86.4196 8.3481C86.4919 8.35164 86.5618 8.37472 86.622 8.41488Z" fill="#222222"/>
</g>
<defs>
<clipPath id="clip0_893_281">
<rect width="100" height="24" fill="white" transform="translate(0 -0.00012207)"/>
</clipPath>
</defs>
</symbol>
</svg>
