<svg width="120" height="24" viewBox="0 0 120 24" fill="none" xmlns="http://www.w3.org/2000/svg">
<symbol id="upcoming" viewBox="0 0 120 24">
<path d="M6.8665 18.192C5.2665 18.192 4.0185 17.7493 3.1225 16.864C2.23717 15.9787 1.7945 14.7147 1.7945 13.072V6.8H4.3865V12.976C4.3865 14.9813 5.2185 15.984 6.8825 15.984C7.69317 15.984 8.31183 15.744 8.7385 15.264C9.16517 14.7733 9.3785 14.0107 9.3785 12.976V6.8H11.9385V13.072C11.9385 14.7147 11.4905 15.9787 10.5945 16.864C9.70917 17.7493 8.4665 18.192 6.8665 18.192ZM19.4119 9.264C20.2119 9.264 20.9372 9.45067 21.5879 9.824C22.2492 10.1867 22.7665 10.704 23.1399 11.376C23.5132 12.0373 23.6999 12.8107 23.6999 13.696C23.6999 14.5813 23.5132 15.36 23.1399 16.032C22.7665 16.6933 22.2492 17.2107 21.5879 17.584C20.9372 17.9467 20.2119 18.128 19.4119 18.128C18.3132 18.128 17.4492 17.7813 16.8199 17.088V21.104H14.3239V9.392H16.7079V10.384C17.3265 9.63733 18.2279 9.264 19.4119 9.264ZM18.9799 16.08C19.6199 16.08 20.1425 15.8667 20.5479 15.44C20.9639 15.0027 21.1719 14.4213 21.1719 13.696C21.1719 12.9707 20.9639 12.3947 20.5479 11.968C20.1425 11.5307 19.6199 11.312 18.9799 11.312C18.3399 11.312 17.8119 11.5307 17.3959 11.968C16.9905 12.3947 16.7879 12.9707 16.7879 13.696C16.7879 14.4213 16.9905 15.0027 17.3959 15.44C17.8119 15.8667 18.3399 16.08 18.9799 16.08ZM29.5308 18.128C28.6134 18.128 27.7868 17.9413 27.0508 17.568C26.3254 17.184 25.7548 16.656 25.3388 15.984C24.9334 15.312 24.7308 14.5493 24.7308 13.696C24.7308 12.8427 24.9334 12.08 25.3388 11.408C25.7548 10.736 26.3254 10.2133 27.0508 9.84C27.7868 9.456 28.6134 9.264 29.5308 9.264C30.4374 9.264 31.2268 9.456 31.8988 9.84C32.5814 10.2133 33.0774 10.752 33.3868 11.456L31.4508 12.496C31.0028 11.7067 30.3574 11.312 29.5148 11.312C28.8641 11.312 28.3254 11.5253 27.8988 11.952C27.4721 12.3787 27.2588 12.96 27.2588 13.696C27.2588 14.432 27.4721 15.0133 27.8988 15.44C28.3254 15.8667 28.8641 16.08 29.5148 16.08C30.3681 16.08 31.0134 15.6853 31.4508 14.896L33.3868 15.952C33.0774 16.6347 32.5814 17.168 31.8988 17.552C31.2268 17.936 30.4374 18.128 29.5308 18.128ZM38.8105 18.128C37.9038 18.128 37.0878 17.9413 36.3625 17.568C35.6478 17.184 35.0878 16.656 34.6825 15.984C34.2772 15.312 34.0745 14.5493 34.0745 13.696C34.0745 12.8427 34.2772 12.08 34.6825 11.408C35.0878 10.736 35.6478 10.2133 36.3625 9.84C37.0878 9.456 37.9038 9.264 38.8105 9.264C39.7172 9.264 40.5278 9.456 41.2425 9.84C41.9572 10.2133 42.5172 10.736 42.9225 11.408C43.3278 12.08 43.5305 12.8427 43.5305 13.696C43.5305 14.5493 43.3278 15.312 42.9225 15.984C42.5172 16.656 41.9572 17.184 41.2425 17.568C40.5278 17.9413 39.7172 18.128 38.8105 18.128ZM38.8105 16.08C39.4505 16.08 39.9732 15.8667 40.3785 15.44C40.7945 15.0027 41.0025 14.4213 41.0025 13.696C41.0025 12.9707 40.7945 12.3947 40.3785 11.968C39.9732 11.5307 39.4505 11.312 38.8105 11.312C38.1705 11.312 37.6425 11.5307 37.2265 11.968C36.8105 12.3947 36.6025 12.9707 36.6025 13.696C36.6025 14.4213 36.8105 15.0027 37.2265 15.44C37.6425 15.8667 38.1705 16.08 38.8105 16.08ZM56.2229 9.264C57.3002 9.264 58.1535 9.584 58.7829 10.224C59.4229 10.8533 59.7429 11.8027 59.7429 13.072V18H57.2469V13.456C57.2469 12.7733 57.1029 12.2667 56.8149 11.936C56.5375 11.5947 56.1375 11.424 55.6149 11.424C55.0282 11.424 54.5642 11.616 54.2229 12C53.8815 12.3733 53.7109 12.9333 53.7109 13.68V18H51.2149V13.456C51.2149 12.1013 50.6709 11.424 49.5829 11.424C49.0069 11.424 48.5482 11.616 48.2069 12C47.8655 12.3733 47.6949 12.9333 47.6949 13.68V18H45.1989V9.392H47.5829V10.384C47.9029 10.0213 48.2922 9.744 48.7509 9.552C49.2202 9.36 49.7322 9.264 50.2869 9.264C50.8949 9.264 51.4442 9.38667 51.9349 9.632C52.4255 9.86667 52.8202 10.2133 53.1189 10.672C53.4709 10.224 53.9135 9.87733 54.4469 9.632C54.9909 9.38667 55.5829 9.264 56.2229 9.264ZM61.9801 9.392H64.4761V18H61.9801V9.392ZM63.2281 8.192C62.7695 8.192 62.3961 8.05867 62.1081 7.792C61.8201 7.52533 61.6761 7.19467 61.6761 6.8C61.6761 6.40533 61.8201 6.07467 62.1081 5.808C62.3961 5.54133 62.7695 5.408 63.2281 5.408C63.6868 5.408 64.0601 5.536 64.3481 5.792C64.6361 6.048 64.7801 6.368 64.7801 6.752C64.7801 7.168 64.6361 7.51467 64.3481 7.792C64.0601 8.05867 63.6868 8.192 63.2281 8.192ZM72.0246 9.264C73.0913 9.264 73.95 9.584 74.6006 10.224C75.262 10.864 75.5926 11.8133 75.5926 13.072V18H73.0966V13.456C73.0966 12.7733 72.9473 12.2667 72.6486 11.936C72.35 11.5947 71.918 11.424 71.3526 11.424C70.7233 11.424 70.222 11.6213 69.8486 12.016C69.4753 12.4 69.2886 12.976 69.2886 13.744V18H66.7926V9.392H69.1766V10.4C69.5073 10.0373 69.918 9.76 70.4086 9.568C70.8993 9.36533 71.438 9.264 72.0246 9.264ZM86.8289 9.392V16.56C86.8289 18.1387 86.4182 19.312 85.5969 20.08C84.7755 20.848 83.5755 21.232 81.9969 21.232C81.1649 21.232 80.3755 21.1307 79.6289 20.928C78.8822 20.7253 78.2635 20.432 77.7729 20.048L78.7649 18.256C79.1275 18.5547 79.5862 18.7893 80.1409 18.96C80.6955 19.1413 81.2502 19.232 81.8049 19.232C82.6689 19.232 83.3035 19.0347 83.7089 18.64C84.1249 18.256 84.3329 17.6693 84.3329 16.88V16.512C83.6822 17.2267 82.7755 17.584 81.6129 17.584C80.8235 17.584 80.0982 17.4133 79.4369 17.072C78.7862 16.72 78.2689 16.2293 77.8849 15.6C77.5009 14.9707 77.3089 14.2453 77.3089 13.424C77.3089 12.6027 77.5009 11.8773 77.8849 11.248C78.2689 10.6187 78.7862 10.1333 79.4369 9.792C80.0982 9.44 80.8235 9.264 81.6129 9.264C82.8609 9.264 83.8102 9.67467 84.4609 10.496V9.392H86.8289ZM82.1089 15.536C82.7702 15.536 83.3089 15.344 83.7249 14.96C84.1515 14.5653 84.3649 14.0533 84.3649 13.424C84.3649 12.7947 84.1515 12.288 83.7249 11.904C83.3089 11.5093 82.7702 11.312 82.1089 11.312C81.4475 11.312 80.9035 11.5093 80.4769 11.904C80.0502 12.288 79.8369 12.7947 79.8369 13.424C79.8369 14.0533 80.0502 14.5653 80.4769 14.96C80.9035 15.344 81.4475 15.536 82.1089 15.536Z" fill="#222222"/>
<path d="M108 22C102.477 22 98 17.523 98 12C98 6.477 102.477 2 108 2C113.523 2 118 6.477 118 12C118 17.523 113.523 22 108 22ZM108 20C110.122 20 112.157 19.1571 113.657 17.6569C115.157 16.1566 116 14.1217 116 12C116 9.87827 115.157 7.84344 113.657 6.34315C112.157 4.84285 110.122 4 108 4C105.878 4 103.843 4.84285 102.343 6.34315C100.843 7.84344 100 9.87827 100 12C100 14.1217 100.843 16.1566 102.343 17.6569C103.843 19.1571 105.878 20 108 20ZM109 12H113V14H107V7H109V12Z" fill="#222222"/>
</symbol>
</svg>
